<svg version="1.2" xmlns="http://www.w3.org/2000/svg" viewBox="0 0 380 100" width="380" height="100">
	<title>logo-svg</title>
	<style>
		tspan { white-space:pre } 
		.s0 { fill: none;stroke: #141b34;stroke-linecap: round;stroke-linejoin: round;stroke-width: 4.9 } 
		.t1 { font-size: 24px;fill: #141b34;font-weight: 700;font-family: "CMUSerif-Bold", "CMU Serif" } 
	</style>
	<text id="" style="transform: matrix(1,0,0,1,167.871,17.65)" >
	</text>
	<path fill-rule="evenodd" class="s0" d="m25.6 44.7l17.1 29.1c1.6 2.7 2.4 4.1 3.2 4.8 2.3 2 5.4 2 7.6 0 0.9-0.7 1.7-2.1 3.3-4.8l-12.1-20.2 6.1-10.5h-12.5l-5.3-9h23l7.7-13.2h-27.7c-10.7 0-16.1 0-17.9 4.1-1.8 4 1.3 9.3 7.5 19.7z"/>
	<path fill-rule="evenodd" class="s0" d="m82.9 24.9c1.9 4.2-1.4 9.6-8.1 20.5l-13.2 21.6-7.8-12.5 20.3-33.6c4.8 0.3 7.6 1.3 8.8 4z"/>
	<text id="ConvertX" style="transform: matrix(2.196,0,0,2.521,99.927,73.025)" >
		<tspan x="0" y="0" class="t1">C</tspan><tspan  y="0" class="t1">o</tspan><tspan  y="0" class="t1">n</tspan><tspan  y="0" class="t1">v</tspan><tspan  y="0" class="t1">e</tspan><tspan  y="0" class="t1">r</tspan><tspan  y="0" class="t1">t</tspan><tspan  y="0" class="t1">X</tspan><tspan  y="0" class="t1">
</tspan>
	</text>
</svg>